<svg width="180" height="180" viewBox="0 0 180 180" fill="none" xmlns="http://www.w3.org/2000/svg">
<g clip-path="url(#clip0_9048_302922)">
<g clip-path="url(#clip1_9048_302922)">
<path d="M56.7 15.8008C42.9 15.8008 30.6 21.8008 22.1 31.4008C14.9 39.6008 10.5 50.3008 10.5 62.1008C10.5 87.6008 31.2 108.301 56.7 108.301C82.2 108.301 102.9 87.6008 102.9 62.1008C102.9 36.6008 82.3 15.8008 56.7 15.8008Z" fill="#FFDDA6"/>
<path d="M52.4 89.7992C40.5 89.7992 30.1 90.1992 24 94.6992C32.4 103.099 43.9 108.199 56.7 108.199C69.5 108.199 81.1 102.999 89.5 94.4992C83.4 90.0992 73 89.6992 61.3 89.6992H52.4V89.7992Z" fill="#33312D"/>
<path d="M110.902 160H137.602V154.3C142.202 155.5 146.502 157.4 150.502 159.8C162.602 151.5 170.502 137.5 170.502 121.8C170.502 110 166.102 99.3 158.902 91.1C150.402 81.5 138.102 75.5 124.302 75.5C98.8016 75.5 78.1016 96.2 78.1016 121.7C78.1016 137.5 86.0016 151.4 98.1016 159.7C102.002 157.3 106.402 155.4 111.002 154.2V160H110.902Z" fill="#CFE4FA"/>
<path d="M146.9 90.3H100.8L97.5 88.4L100.8 86.5H146.9C147.7 86.5 148.4 87.3 148.4 88.4C148.4 89.4 147.7 90.3 146.9 90.3Z" fill="#F7B548"/>
<path d="M124.3 98.9008C132.474 98.9008 139.1 92.2746 139.1 84.1008C139.1 75.927 132.474 69.3008 124.3 69.3008C116.126 69.3008 109.5 75.927 109.5 84.1008C109.5 92.2746 116.126 98.9008 124.3 98.9008Z" fill="#594539"/>
<path d="M124.3 98.9008C132.474 98.9008 139.1 92.2746 139.1 84.1008C139.1 75.927 132.474 69.3008 124.3 69.3008C116.126 69.3008 109.5 75.927 109.5 84.1008C109.5 92.2746 116.126 98.9008 124.3 98.9008Z" fill="url(#paint0_radial_9048_302922)"/>
<path d="M132.998 121.701H115.398V165.501H132.998V121.701Z" fill="#E0BB95"/>
<path d="M132.998 129.701H115.398V165.501H132.998V129.701Z" fill="url(#paint1_radial_9048_302922)"/>
<path d="M124.305 145C140.321 145 153.305 132.016 153.305 116C153.305 99.9837 140.321 87 124.305 87C108.288 87 95.3047 99.9837 95.3047 116C95.3047 132.016 108.288 145 124.305 145Z" fill="#594539"/>
<path d="M124.3 145.301C136.616 145.301 146.6 135.317 146.6 123.001C146.6 110.685 136.616 100.701 124.3 100.701C111.984 100.701 102 110.685 102 123.001C102 135.317 111.984 145.301 124.3 145.301Z" fill="#E0BB95"/>
<path d="M150.703 160.001H97.7031C104.903 155.501 113.503 152.801 122.703 152.801H125.803C134.903 152.801 143.503 155.501 150.703 160.001Z" fill="#E0BB95"/>
<path d="M115.105 135.1C110.305 135.1 106.305 131.2 106.305 126.3C106.305 121.5 110.205 117.5 115.105 117.5C120.005 117.5 123.905 121.4 123.905 126.3C123.905 131.2 120.005 135.1 115.105 135.1ZM115.105 119.8C111.505 119.8 108.505 122.8 108.505 126.4C108.505 130 111.505 133 115.105 133C118.705 133 121.705 130 121.705 126.4C121.705 122.7 118.805 119.8 115.105 119.8Z" fill="#9A643D"/>
<path d="M133.308 135.1C128.508 135.1 124.508 131.2 124.508 126.3C124.508 121.5 128.408 117.5 133.308 117.5C138.208 117.5 142.108 121.4 142.108 126.3C142.108 131.2 138.108 135.1 133.308 135.1ZM133.308 119.8C129.708 119.8 126.708 122.8 126.708 126.4C126.708 130 129.708 133 133.308 133C136.908 133 139.908 130 139.908 126.4C139.908 122.7 136.908 119.8 133.308 119.8Z" fill="#9A643D"/>
<path d="M125.908 123H122.508V125.2H125.908V123Z" fill="#9A643D"/>
<path d="M92.4984 163.802L92.3984 163.902C92.4984 163.802 92.5984 163.702 92.6984 163.602C92.6984 163.602 92.5984 163.702 92.4984 163.802Z" fill="#FFD590"/>
<path d="M97.7016 160L97.6016 160.1C97.6016 160.1 97.7016 160.1 97.7016 160Z" fill="#FFD590"/>
<path d="M110.898 160V166C115.098 167.3 119.598 168 124.298 168C128.998 168 133.398 167.3 137.698 166V160H110.898Z" fill="#FFD590"/>
<path d="M98.0031 159.801C97.9031 159.901 97.8031 159.901 97.7031 160.001H98.3031C98.2031 160.001 98.1031 159.901 98.0031 159.801Z" fill="#E1DFDD"/>
<path d="M98.3 160.001C102.1 162.601 106.4 164.601 110.9 166.001V160.001V154.301C106.3 155.501 102 157.401 98 159.801C98.1 159.901 98.2 160.001 98.3 160.001Z" fill="#E1DFDD"/>
<path d="M137.602 154.301V160.001V166.001C142.102 164.601 146.402 162.601 150.202 160.001C150.302 159.901 150.402 159.901 150.502 159.801C146.602 157.401 142.302 155.501 137.602 154.301Z" fill="#E1DFDD"/>
<path opacity="0.5" d="M121.198 136.4C121.898 136.6 122.498 136.6 122.998 136.6C123.498 136.6 123.998 136.4 124.498 136.3C124.998 136.1 125.498 135.9 125.998 135.6C126.498 135.3 126.898 135 127.398 134.5L127.498 134.4C127.698 134.2 127.998 134.2 128.198 134.4C128.298 134.5 128.298 134.6 128.398 134.7C128.598 135.6 128.198 136.7 127.698 137.4C127.098 138.1 126.298 138.7 125.398 139C124.498 139.3 123.498 139.4 122.598 139.1C121.698 138.8 120.798 138.1 120.498 137.3C120.398 137 120.498 136.7 120.798 136.6C120.898 136.4 120.998 136.4 121.198 136.4Z" fill="#9B643D"/>
<path d="M115.105 129.701C116.099 129.701 116.905 128.268 116.905 126.501C116.905 124.733 116.099 123.301 115.105 123.301C114.111 123.301 113.305 124.733 113.305 126.501C113.305 128.268 114.111 129.701 115.105 129.701Z" fill="#33312D"/>
<path d="M133.105 129.701C134.099 129.701 134.905 128.268 134.905 126.501C134.905 124.733 134.099 123.301 133.105 123.301C132.111 123.301 131.305 124.733 131.305 126.501C131.305 128.268 132.111 129.701 133.105 129.701Z" fill="#33312D"/>
<path d="M153.302 116C153.302 117.7 153.202 119.3 152.902 120.9C144.602 120.4 137.402 116 133.102 109.5C135.802 105.4 137.402 100.6 137.402 95.3004C137.402 93.5004 137.202 91.7004 136.802 89.9004C146.502 94.5004 153.302 104.5 153.302 116Z" fill="#594539"/>
<path d="M136.797 89.7996C137.197 91.4996 137.397 93.2996 137.397 95.1996C137.397 100.4 135.797 105.3 133.097 109.4C130.397 105.3 128.797 100.5 128.797 95.1996C128.797 92.4996 129.197 89.9996 129.997 87.5996C132.397 88.0996 134.597 88.7996 136.797 89.7996Z" fill="#594539"/>
<path d="M133.098 109.4C128.498 116.3 120.598 120.9 111.698 120.9C105.498 120.9 99.7984 118.7 95.3984 115C95.8984 99.4 108.698 87 124.298 87C126.198 87 128.098 87.2 129.998 87.6C129.298 90 128.798 92.6 128.798 95.2C128.798 100.5 130.398 105.3 133.098 109.4Z" fill="#594539"/>
<path d="M65.0031 143C65.0031 129 53.6031 117.6 39.6031 117.6C25.6031 117.6 14.2031 129 14.2031 143C14.2031 150.7 17.7031 157.7 23.1031 162.3C24.1031 160.8 26.5031 159.7 29.2031 159.7H33.6031H34.7031C34.6031 159.1 34.6031 158.4 34.6031 157.8V154.2C31.9031 152.4 30.0031 149 30.0031 145.1V144.4H29.8031C28.5031 144.4 27.5031 143.3 27.5031 142C27.5031 140.7 28.5031 139.6 29.8031 139.6H30.0031V137.8L30.1031 137.7V134.8C30.1031 129.2 34.2031 126.1 39.2031 126.1V124.6C44.6031 124.6 48.9031 129.2 48.9031 134.8V139.3H48.8031V139.7H49.2031C50.5031 139.7 51.5031 140.8 51.5031 142.1C51.5031 143.4 50.5031 144.5 49.2031 144.5H48.8031V145.2C48.8031 149.2 46.7031 152.7 43.6031 154.5V158C43.6031 158.7 43.6031 159.3 43.5031 159.9H45.5031H49.9031C52.7031 159.9 55.0031 161 56.0031 162.5C61.5031 157.6 65.0031 150.7 65.0031 143Z" fill="#EBF3FC"/>
<path d="M49.9031 159.7H45.5031H43.6031C43.7031 159.1 43.7031 158.4 43.7031 157.8V154.3C46.8031 152.6 48.9031 149.1 48.9031 145V144.3H49.3031C50.6031 144.3 51.6031 143.2 51.6031 141.9C51.6031 140.6 50.6031 139.5 49.3031 139.5H48.9031V139.1H49.0031V134.6C49.0031 129 44.6031 124.4 39.3031 124.4V125.9C34.3031 125.9 30.2031 129 30.2031 134.6V137.5L30.1031 137.6V139.4H29.9031C28.6031 139.4 27.6031 140.5 27.6031 141.8C27.6031 143.1 28.6031 144.2 29.9031 144.2H30.1031V144.9C30.1031 148.8 31.9031 152.2 34.7031 154V157.6C34.7031 158.3 34.7031 158.9 34.8031 159.5H33.7031H29.3031C26.5031 159.5 24.2031 160.6 23.2031 162.1C27.6031 165.9 33.4031 168.2 39.6031 168.2C45.9031 168.2 51.6031 165.9 56.0031 162.1C55.0031 160.8 52.7031 159.7 49.9031 159.7Z" fill="#B4D6FA"/>
<path d="M141.802 65.4C155.443 65.4 166.502 54.3414 166.502 40.7C166.502 27.0586 155.443 16 141.802 16C128.16 16 117.102 27.0586 117.102 40.7C117.102 54.3414 128.16 65.4 141.802 65.4Z" fill="#EBF3FC"/>
<path d="M148.9 58.5992C147.8 57.9992 146.7 57.4992 145.6 57.1992C144.1 56.3992 143.9 55.8992 143.9 54.2992V51.0992C146 50.0992 147.7 47.9992 148.7 45.2992C150.1 45.2992 151.2 44.1992 151.2 42.7992C151.2 42.3992 151.1 41.9992 151 41.6992C151.5 40.3992 151.9 38.9992 151.9 37.5992C154.1 37.4992 156.1 36.0992 156.8 33.2992C157.7 29.4992 154.5 26.0992 154.5 26.0992C153.2 29.0992 150.9 24.8992 146.8 23.1992C142.8 21.4992 136.8 22.1992 134.4 26.3992C131 28.4992 129.8 32.4992 129.9 36.9992C129.9 38.5992 130.2 40.1992 130.8 41.5992C130.6 41.8992 130.5 42.2992 130.5 42.7992C130.5 44.1992 131.6 45.2992 133 45.2992H133.1C133.2 45.3992 133.2 45.3992 133.3 45.4992C134.1 47.6992 135.5 49.4992 137.1 50.5992V54.3992C137.2 55.9992 136.6 56.5992 135.6 56.9992C134.5 57.2992 133.5 57.6992 132.7 58.1992C132.7 58.1992 132.7 58.1992 132.6 58.1992C130.6 59.1992 129.3 60.1992 128.5 61.3992C132.3 63.8992 136.9 65.2992 141.8 65.2992C145.8 65.2992 149.6 64.2992 153 62.5992C152.2 61.0992 150.9 59.7992 148.9 58.5992Z" fill="#B4D6FA"/>
<path d="M69.2984 56.6008H42.7984C37.8984 56.6008 33.8984 52.6008 33.8984 47.7008V33.9008C33.8984 22.5008 43.0984 13.3008 54.4984 13.3008H57.4984C68.8984 13.3008 78.0984 22.5008 78.0984 33.9008V47.7008C78.1984 52.6008 74.1984 56.6008 69.2984 56.6008Z" fill="#33312D"/>
<path d="M67.5031 57.4004H45.7031V86.1004C45.7031 89.2004 40.2031 90.5004 40.2031 90.5004L73.6031 90.3004C73.6031 90.3004 67.5031 88.8004 67.5031 85.7004V57.4004Z" fill="url(#paint2_radial_9048_302922)"/>
<path d="M30.2969 52.8008C30.2969 56.7008 33.3969 59.9008 37.2969 59.9008C37.5969 59.9008 40.9969 59.9008 41.1969 59.9008C44.6969 59.5008 44.2969 56.6008 44.2969 52.9008C44.2969 49.3008 44.7969 46.3008 41.2969 45.9008C40.9969 45.9008 37.5969 45.8008 37.2969 45.8008C33.4969 45.8008 30.2969 48.9008 30.2969 52.8008Z" fill="#9B643D"/>
<path d="M58.7984 78.4008H53.3984C44.4984 78.4008 37.3984 71.2008 37.3984 62.4008V37.3008C37.3984 28.4008 44.5984 21.3008 53.3984 21.3008H58.7984C67.6984 21.3008 74.7984 28.5008 74.7984 37.3008V62.4008C74.7984 71.2008 67.5984 78.4008 58.7984 78.4008Z" fill="#9B643D"/>
<path d="M65.7048 47.6629C65.7152 45.7852 64.9178 44.2585 63.9237 44.253C62.9296 44.2474 62.1152 45.7652 62.1048 47.643C62.0944 49.5207 62.8918 51.0474 63.8859 51.053C64.88 51.0585 65.6944 49.5407 65.7048 47.6629Z" fill="#3A312E"/>
<path d="M54.8031 58.7996L51.5031 56.6996C50.8031 56.1996 50.6031 55.2996 51.0031 54.4996L53.9031 49.9996C54.6031 48.8996 55.0031 47.6996 55.0031 46.3996L55.1031 30.5996L40.7031 30.7996L41.8031 71.2996L55.5031 71.0996L55.9031 60.7996C55.9031 59.9996 55.5031 59.2996 54.8031 58.7996Z" fill="url(#paint3_radial_9048_302922)"/>
<path d="M49.7439 47.6004C49.7543 45.7227 48.9568 44.196 47.9627 44.1905C46.9686 44.1849 46.1543 45.7027 46.1439 47.5805C46.1334 49.4582 46.9309 50.9849 47.925 50.9905C48.9191 50.996 49.7334 49.4782 49.7439 47.6004Z" fill="#3A312E"/>
<path d="M82.0013 52.8008C82.0013 56.7008 78.9013 59.9008 75.0013 59.9008C74.7013 59.9008 71.3013 59.9008 71.1013 59.9008C67.6013 59.5008 68.0013 56.6008 68.0013 52.9008C68.0013 49.3008 67.5013 46.3008 71.0013 45.9008C71.3013 45.9008 74.7013 45.8008 75.0013 45.8008C78.8013 45.8008 82.0013 48.9008 82.0013 52.8008Z" fill="#9B643D"/>
<path d="M62.5016 64.6004C62.5016 65.7004 62.0016 66.9004 61.2016 67.8004C60.4016 68.7004 59.3016 69.4004 58.1016 69.7004C56.9016 70.0004 55.7016 70.0004 54.5016 69.7004C53.4016 69.3004 52.3016 68.6004 51.7016 67.6004C51.5016 67.2004 51.6016 66.8004 52.0016 66.5004C52.1016 66.4004 52.3016 66.4004 52.4016 66.4004H52.5016C53.5016 66.4004 54.3016 66.4004 55.0016 66.3004C55.7016 66.2004 56.4016 66.1004 57.1016 65.9004C57.8016 65.7004 58.4016 65.5004 59.0016 65.2004C59.7016 64.9004 60.4016 64.5004 61.2016 64.0004H61.3016C61.7016 63.8004 62.1016 63.9004 62.4016 64.3004C62.5016 64.3004 62.5016 64.5004 62.5016 64.6004Z" fill="#855035"/>
<path d="M68.7016 17.4004H43.5016L35.6016 29.3004L37.2016 45.8004L39.3016 33.7004C40.1016 29.9004 43.5016 27.1004 47.4016 27.1004H64.9016C68.8016 27.1004 72.2016 29.8004 73.0016 33.7004L75.1016 45.8004L76.5016 29.3004L68.7016 17.4004Z" fill="#33312D"/>
<path d="M73.6031 90.2992C72.1031 93.6992 64.1031 101.799 59.6031 106.099C58.0031 107.699 55.5031 107.599 53.9031 106.099C49.6031 101.799 41.8031 93.7992 40.2031 90.4992C45.7031 88.3992 57.4031 87.6992 57.4031 87.6992C57.4031 87.6992 67.2031 87.9992 73.6031 90.2992Z" fill="#9B643D"/>
<path d="M136.298 64.7008C135.798 64.6008 135.298 64.5008 134.898 64.3008C135.398 64.5008 135.798 64.6008 136.298 64.7008Z" fill="#C3F2F4"/>
<path d="M138.202 65.1008C137.702 65.0008 137.102 64.9008 136.602 64.8008C137.102 64.9008 137.602 65.0008 138.202 65.1008Z" fill="#C3F2F4"/>
<path d="M134.7 64.2996C133.6 63.9996 132.6 63.5996 131.5 63.0996C132.6 63.5996 133.6 63.9996 134.7 64.2996Z" fill="#C3F2F4"/>
<path d="M141.797 65.3999C142.297 65.3999 142.697 65.3999 143.197 65.3999C142.797 65.2999 142.297 65.3999 141.797 65.3999Z" fill="#C3F2F4"/>
<path d="M141.803 65.4008C141.303 65.4008 140.703 65.4008 140.203 65.3008C140.703 65.3008 141.303 65.4008 141.803 65.4008Z" fill="#C3F2F4"/>
<path d="M131.5 63.1C130.5 62.6 129.5 62.1 128.5 61.5C129.5 62.1 130.5 62.6 131.5 63.1Z" fill="#C3F2F4"/>
<path d="M143.602 65.2992C143.902 65.2992 144.302 65.1992 144.602 65.1992C144.302 65.1992 144.002 65.2992 143.602 65.2992Z" fill="#C3F2F4"/>
<path d="M145.102 65.1C145.402 65.1 145.802 65 146.102 65C145.702 65.1 145.402 65.1 145.102 65.1Z" fill="#C3F2F4"/>
<path d="M146.398 64.8992C146.798 64.7992 147.198 64.6992 147.498 64.6992C147.198 64.7992 146.798 64.8992 146.398 64.8992Z" fill="#C3F2F4"/>
<path d="M139.798 65.2996C139.298 65.2996 138.898 65.1996 138.398 65.0996C138.798 65.1996 139.298 65.1996 139.798 65.2996Z" fill="#C3F2F4"/>
<path d="M153.003 62.6992C151.303 63.5992 149.603 64.1992 147.703 64.6992C149.603 64.1992 151.403 63.4992 153.003 62.6992Z" fill="#C3F2F4"/>
</g>
</g>
<defs>
<radialGradient id="paint0_radial_9048_302922" cx="0" cy="0" r="1" gradientUnits="userSpaceOnUse" gradientTransform="translate(125.028 97.8681) scale(24.5406 24.5406)">
<stop offset="0.3127" stop-color="#231F20"/>
<stop offset="0.8031" stop-color="#493931" stop-opacity="0.2865"/>
<stop offset="1" stop-color="#594539" stop-opacity="0"/>
</radialGradient>
<radialGradient id="paint1_radial_9048_302922" cx="0" cy="0" r="1" gradientUnits="userSpaceOnUse" gradientTransform="translate(124.552 136.536) scale(13.8058 13.8058)">
<stop offset="0.00125077" stop-color="#9B643D"/>
<stop offset="0.4556" stop-color="#B98963" stop-opacity="0.545"/>
<stop offset="0.9997" stop-color="#E0BB95" stop-opacity="0"/>
</radialGradient>
<radialGradient id="paint2_radial_9048_302922" cx="0" cy="0" r="1" gradientUnits="userSpaceOnUse" gradientTransform="translate(56.8926 73.9438) scale(16.6249)">
<stop offset="0.173" stop-color="#724937"/>
<stop offset="0.7031" stop-color="#9B643D"/>
</radialGradient>
<radialGradient id="paint3_radial_9048_302922" cx="0" cy="0" r="1" gradientUnits="userSpaceOnUse" gradientTransform="translate(56.6338 55.1072) scale(15.356 13.8404)">
<stop offset="0.173" stop-color="#724937"/>
<stop offset="0.7031" stop-color="#9B643D"/>
</radialGradient>
<clipPath id="clip0_9048_302922">
<rect width="160" height="160" fill="white" transform="translate(10.5 10)"/>
</clipPath>
<clipPath id="clip1_9048_302922">
<rect width="160" height="160" fill="white" transform="translate(10.5 10)"/>
</clipPath>
</defs>
</svg>
